<?xml version="1.0" encoding="utf-8"?>
<!-- Generated by Mocodo 4.1.2 -->
<svg width="608" height="170" viewBox="0 0 608 170" xmlns="http://www.w3.org/2000/svg">
<rect x="0" y="0" width="608" height="170" fill="#f7f7f7" stroke="none" stroke-width="0"/>

<!-- Association EST_ASSOCIER -->
<g>
	<line x1="327" y1="85" x2="194" y2="85" stroke="#de77ae" stroke-width="2"/>
	<line x1="58" y1="85" x2="194" y2="85" stroke="#de77ae" stroke-width="2"/>
	<g>
		<path d="M235 60 a14 14 90 0 1 14 14 V85 h-110 V74 a14 14 90 0 1 14 -14" fill="#f1b6da" stroke="#f1b6da" stroke-width="0"/>
		<path d="M249 85 v11 a14 14 90 0 1 -14 14 H153 a14 14 90 0 1 -14 -14 V85 H110" fill="#fde0ef" stroke="#fde0ef" stroke-width="0"/>
		<rect x="139" y="60" width="110" height="50" fill="none" rx="14" stroke="#de77ae" stroke-width="2"/>
		<line x1="139" y1="85" x2="249" y2="85" stroke="#de77ae" stroke-width="1"/>
		<text x="147" y="77.75" fill="#000000" font-family="Verdana" font-size="12">EST_ASSOCIER</text>
	</g>
	<text x="255" y="102" fill="#4d9221" font-family="Verdana" font-size="12">0,1</text>
	<text x="112" y="102" fill="#4d9221" font-family="Verdana" font-size="12">0,N</text>
</g>

<!-- Association AURA -->
<g>
	<line x1="327" y1="85" x2="430" y2="85" stroke="#de77ae" stroke-width="2"/>
	<line x1="543" y1="85" x2="430" y2="85" stroke="#de77ae" stroke-width="2"/>
	<g>
		<path d="M441 60 a14 14 90 0 1 14 14 V85 h-50 V74 a14 14 90 0 1 14 -14" fill="#f1b6da" stroke="#f1b6da" stroke-width="0"/>
		<path d="M455 85 v11 a14 14 90 0 1 -14 14 H419 a14 14 90 0 1 -14 -14 V85 H50" fill="#fde0ef" stroke="#fde0ef" stroke-width="0"/>
		<rect x="405" y="60" width="50" height="50" fill="none" rx="14" stroke="#de77ae" stroke-width="2"/>
		<line x1="405" y1="85" x2="455" y2="85" stroke="#de77ae" stroke-width="1"/>
		<text x="413" y="77.75" fill="#000000" font-family="Verdana" font-size="12">AURA</text>
	</g>
	<text x="378" y="102" fill="#4d9221" font-family="Verdana" font-size="12">0,N</text>
	<text x="461" y="102" fill="#4d9221" font-family="Verdana" font-size="12">1,1</text>
</g>

<!-- Entity CATEGORIES -->
<g>
	<g>
		<rect x="9" y="34" width="98" height="25" fill="#b8e186" stroke="none" stroke-width="0" opacity="1"/>
		<rect x="9" y="59" width="98" height="77" fill="#e6f5d0" stroke="none" stroke-width="0" opacity="1"/>
		<rect x="9" y="34" width="98" height="102" fill="none" stroke="#7fbc41" stroke-width="2" opacity="1"/>
		<line x1="9" y1="59" x2="107" y2="59" stroke="#7fbc41" stroke-width="1"/>
	</g>
	<text x="18" y="51.75" fill="#000000" font-family="Verdana" font-size="12">CATEGORIES</text>
	<text x="14" y="76.8" fill="#000000" font-family="Verdana" font-size="12">num_category</text>
	<line x1="14" y1="79" x2="102" y2="79" stroke="#000000" stroke-width="1"/>
	<text x="14" y="93.8" fill="#000000" font-family="Verdana" font-size="12">nom</text>
	<text x="14" y="110.8" fill="#000000" font-family="Verdana" font-size="12">created_at</text>
	<text x="14" y="127.8" fill="#000000" font-family="Verdana" font-size="12">updated_at</text>
</g>

<!-- Entity PODCASTS -->
<g>
	<g>
		<rect x="281" y="9" width="92" height="25" fill="#b8e186" stroke="none" stroke-width="0" opacity="1"/>
		<rect x="281" y="34" width="92" height="127" fill="#e6f5d0" stroke="none" stroke-width="0" opacity="1"/>
		<rect x="281" y="9" width="92" height="152" fill="none" stroke="#7fbc41" stroke-width="2" opacity="1"/>
		<line x1="281" y1="34" x2="373" y2="34" stroke="#7fbc41" stroke-width="1"/>
	</g>
	<text x="294" y="26.75" fill="#000000" font-family="Verdana" font-size="12">PODCASTS</text>
	<text x="286" y="51.8" fill="#000000" font-family="Verdana" font-size="12">num_podcast</text>
	<line x1="286" y1="54" x2="368" y2="54" stroke="#000000" stroke-width="1"/>
	<text x="286" y="68.8" fill="#000000" font-family="Verdana" font-size="12">titre</text>
	<text x="286" y="85.8" fill="#000000" font-family="Verdana" font-size="12">corps</text>
	<text x="286" y="102.8" fill="#000000" font-family="Verdana" font-size="12">extrait</text>
	<text x="286" y="119.8" fill="#000000" font-family="Verdana" font-size="12">fichier_audio</text>
	<text x="286" y="136.8" fill="#000000" font-family="Verdana" font-size="12">created_at</text>
	<text x="286" y="153.8" fill="#000000" font-family="Verdana" font-size="12">updated_at</text>
</g>

<!-- Entity COMMENTAIRES -->
<g>
	<g>
		<rect x="487" y="34" width="112" height="25" fill="#b8e186" stroke="none" stroke-width="0" opacity="1"/>
		<rect x="487" y="59" width="112" height="77" fill="#e6f5d0" stroke="none" stroke-width="0" opacity="1"/>
		<rect x="487" y="34" width="112" height="102" fill="none" stroke="#7fbc41" stroke-width="2" opacity="1"/>
		<line x1="487" y1="59" x2="599" y2="59" stroke="#7fbc41" stroke-width="1"/>
	</g>
	<text x="493" y="51.75" fill="#000000" font-family="Verdana" font-size="12">COMMENTAIRES</text>
	<text x="492" y="76.8" fill="#000000" font-family="Verdana" font-size="12">num_comment</text>
	<line x1="492" y1="79" x2="584" y2="79" stroke="#000000" stroke-width="1"/>
	<text x="492" y="93.8" fill="#000000" font-family="Verdana" font-size="12">corps</text>
	<text x="492" y="110.8" fill="#000000" font-family="Verdana" font-size="12">created_at</text>
	<text x="492" y="127.8" fill="#000000" font-family="Verdana" font-size="12">updated_at</text>
</g>
</svg>